<?xml version='1.0' encoding='utf-8'?>
<svg xmlns="http://www.w3.org/2000/svg" width="250mm" height="200mm" viewBox="0 0 250.0 200.0"><rect width="100%" height="100%" fill="white" /><g><g class="symbol"><polygon points="0.0,30.0 50.0,30.0 50.0,40.0 0.0,40.0" style="stroke:black;stroke-width:0.25;fill:none" /><text x="25.0" y="27.875" text-anchor="middle" dominant-baseline="auto" font-size="4.25" style="stroke:none;stroke-width:1.0;fill:black;font-family:Times New Roman">J1</text><text x="10.0" y="39.0" text-anchor="middle" dominant-baseline="auto" font-size="3.5" style="stroke:none;stroke-width:1.0;fill:black;font-family:Times New Roman">1</text><text x="20.0" y="39.0" text-anchor="middle" dominant-baseline="auto" font-size="3.5" style="stroke:none;stroke-width:1.0;fill:black;font-family:Times New Roman">2</text><text x="30.0" y="39.0" text-anchor="middle" dominant-baseline="auto" font-size="3.5" style="stroke:none;stroke-width:1.0;fill:black;font-family:Times New Roman">3</text><text x="40.0" y="39.0" text-anchor="middle" dominant-baseline="auto" font-size="3.5" style="stroke:none;stroke-width:1.0;fill:black;font-family:Times New Roman">4</text></g><line x1="10.0" y1="40.0" x2="10.0" y2="42.5" style="stroke:black;stroke-width:0.25;fill:none" /><g class="symbol"><line x1="7.5" y1="47.5" x2="12.5" y2="47.5" style="stroke:black;stroke-width:0.25;fill:none" /><text x="10.0" y="56.0" text-anchor="middle" dominant-baseline="auto" font-size="4.25" style="stroke:none;stroke-width:1.0;fill:black;font-family:Times New Roman">+24V</text></g><line x1="10.0" y1="42.5" x2="10.0" y2="47.5" style="stroke:black;stroke-width:0.25;fill:none" /><line x1="20.0" y1="40.0" x2="20.0" y2="160.0" style="stroke:black;stroke-width:0.25;fill:none" /><text x="15.0" y="42.5" text-anchor="start" dominant-baseline="auto" font-size="4.25" transform="rotate(90, 15.0, 42.5)" style="stroke:none;stroke-width:1.0;fill:black;font-family:Times New Roman">SIG_IN</text><g class="symbol"><polygon points="15.0,162.5 25.0,162.5 25.0,167.5 15.0,167.5" style="stroke:black;stroke-width:0.25;fill:none" /><line x1="20.0" y1="162.5" x2="20.0" y2="160.0" style="stroke:black;stroke-width:0.25;fill:none" /><line x1="20.0" y1="167.5" x2="20.0" y2="170.0" style="stroke:black;stroke-width:0.25;fill:none" /><text x="12.5" y="165.0" text-anchor="end" dominant-baseline="auto" font-size="5.0" style="stroke:none;stroke-width:1.0;fill:black;font-family:Times New Roman">K1</text><text x="18.5" y="160.0" text-anchor="end" dominant-baseline="auto" font-size="3.5" style="stroke:none;stroke-width:1.0;fill:black;font-family:Times New Roman">A1</text><text x="18.5" y="170.0" text-anchor="end" dominant-baseline="auto" font-size="3.5" style="stroke:none;stroke-width:1.0;fill:black;font-family:Times New Roman">A2</text></g><line x1="20.0" y1="170.0" x2="20.0" y2="175.0" style="stroke:black;stroke-width:0.25;fill:none" /><g class="symbol"><line x1="20.0" y1="180.0" x2="20.0" y2="180.45" style="stroke:black;stroke-width:0.25;fill:none" /><line x1="17.5" y1="180.45" x2="22.5" y2="180.45" style="stroke:black;stroke-width:0.25;fill:none" /><line x1="18.5" y1="181.35" x2="21.5" y2="181.35" style="stroke:black;stroke-width:0.25;fill:none" /><line x1="19.375" y1="182.25" x2="20.625" y2="182.25" style="stroke:black;stroke-width:0.25;fill:none" /><text x="20.0" y="188.5" text-anchor="middle" dominant-baseline="auto" font-size="4.25" style="stroke:none;stroke-width:1.0;fill:black;font-family:Times New Roman">GND</text></g><line x1="20.0" y1="175.0" x2="20.0" y2="180.0" style="stroke:black;stroke-width:0.25;fill:none" /><line x1="30.0" y1="40.0" x2="30.0" y2="42.5" style="stroke:black;stroke-width:0.25;fill:none" /><g class="symbol"><line x1="30.0" y1="47.5" x2="30.0" y2="47.95" style="stroke:black;stroke-width:0.25;fill:none" /><line x1="27.5" y1="47.95" x2="32.5" y2="47.95" style="stroke:black;stroke-width:0.25;fill:none" /><line x1="28.5" y1="48.85" x2="31.5" y2="48.85" style="stroke:black;stroke-width:0.25;fill:none" /><line x1="29.375" y1="49.75" x2="30.625" y2="49.75" style="stroke:black;stroke-width:0.25;fill:none" /><text x="30.0" y="56.0" text-anchor="middle" dominant-baseline="auto" font-size="4.25" style="stroke:none;stroke-width:1.0;fill:black;font-family:Times New Roman">GND</text></g><line x1="30.0" y1="42.5" x2="30.0" y2="47.5" style="stroke:black;stroke-width:0.25;fill:none" /><line x1="40.0" y1="40.0" x2="40.0" y2="42.5" style="stroke:black;stroke-width:0.25;fill:none" /><g class="symbol"><line x1="40.0" y1="47.5" x2="40.0" y2="47.95" style="stroke:black;stroke-width:0.25;fill:none" /><line x1="37.5" y1="47.95" x2="42.5" y2="47.95" style="stroke:black;stroke-width:0.25;fill:none" /><line x1="38.5" y1="48.85" x2="41.5" y2="48.85" style="stroke:black;stroke-width:0.25;fill:none" /><line x1="39.375" y1="49.75" x2="40.625" y2="49.75" style="stroke:black;stroke-width:0.25;fill:none" /><text x="40.0" y="56.0" text-anchor="middle" dominant-baseline="auto" font-size="4.25" style="stroke:none;stroke-width:1.0;fill:black;font-family:Times New Roman">GND</text></g><line x1="40.0" y1="42.5" x2="40.0" y2="47.5" style="stroke:black;stroke-width:0.25;fill:none" /><g class="symbol"><polygon points="70.0,30.0 120.0,30.0 120.0,40.0 70.0,40.0" style="stroke:black;stroke-width:0.25;fill:none" /><text x="95.0" y="27.875" text-anchor="middle" dominant-baseline="auto" font-size="4.25" style="stroke:none;stroke-width:1.0;fill:black;font-family:Times New Roman">J2</text><text x="80.0" y="39.0" text-anchor="middle" dominant-baseline="auto" font-size="3.5" style="stroke:none;stroke-width:1.0;fill:black;font-family:Times New Roman">1</text><text x="90.0" y="39.0" text-anchor="middle" dominant-baseline="auto" font-size="3.5" style="stroke:none;stroke-width:1.0;fill:black;font-family:Times New Roman">2</text><text x="100.0" y="39.0" text-anchor="middle" dominant-baseline="auto" font-size="3.5" style="stroke:none;stroke-width:1.0;fill:black;font-family:Times New Roman">3</text><text x="110.0" y="39.0" text-anchor="middle" dominant-baseline="auto" font-size="3.5" style="stroke:none;stroke-width:1.0;fill:black;font-family:Times New Roman">4</text></g><line x1="80.0" y1="40.0" x2="80.0" y2="160.0" style="stroke:black;stroke-width:0.25;fill:none" /><text x="75.0" y="42.5" text-anchor="start" dominant-baseline="auto" font-size="4.25" transform="rotate(90, 75.0, 42.5)" style="stroke:none;stroke-width:1.0;fill:black;font-family:Times New Roman">SIG_OUT</text><g class="symbol"><polygon points="77.5,160.0 82.5,160.0 82.5,172.5 77.5,172.5" style="stroke:black;stroke-width:0.25;fill:none" /><line x1="80.0" y1="160.0" x2="80.0" y2="172.5" style="stroke:black;stroke-width:0.25;fill:none" /><text x="75.0" y="166.25" text-anchor="end" dominant-baseline="auto" font-size="5.0" style="stroke:none;stroke-width:1.0;fill:black;font-family:Times New Roman">F1</text></g><line x1="80.0" y1="172.5" x2="80.0" y2="175.0" style="stroke:black;stroke-width:0.25;fill:none" /><g class="symbol"><line x1="77.5" y1="180.0" x2="82.5" y2="180.0" style="stroke:black;stroke-width:0.25;fill:none" /><text x="80.0" y="188.5" text-anchor="middle" dominant-baseline="auto" font-size="4.25" style="stroke:none;stroke-width:1.0;fill:black;font-family:Times New Roman">+24V</text></g><line x1="80.0" y1="175.0" x2="80.0" y2="180.0" style="stroke:black;stroke-width:0.25;fill:none" /><line x1="89.0" y1="39.0" x2="91.0" y2="41.0" style="stroke:black;stroke-width:0.25;fill:none" /><line x1="89.0" y1="41.0" x2="91.0" y2="39.0" style="stroke:black;stroke-width:0.25;fill:none" /><text x="90.0" y="43.55" text-anchor="middle" dominant-baseline="auto" font-size="4.25" style="stroke:none;stroke-width:1.0;fill:black;font-family:Times New Roman">NC</text><line x1="99.0" y1="39.0" x2="101.0" y2="41.0" style="stroke:black;stroke-width:0.25;fill:none" /><line x1="99.0" y1="41.0" x2="101.0" y2="39.0" style="stroke:black;stroke-width:0.25;fill:none" /><text x="100.0" y="43.55" text-anchor="middle" dominant-baseline="auto" font-size="4.25" style="stroke:none;stroke-width:1.0;fill:black;font-family:Times New Roman">NC</text><line x1="109.0" y1="39.0" x2="111.0" y2="41.0" style="stroke:black;stroke-width:0.25;fill:none" /><line x1="109.0" y1="41.0" x2="111.0" y2="39.0" style="stroke:black;stroke-width:0.25;fill:none" /><text x="110.0" y="43.55" text-anchor="middle" dominant-baseline="auto" font-size="4.25" style="stroke:none;stroke-width:1.0;fill:black;font-family:Times New Roman">NC</text></g></svg>